<mxfile host="app.diagrams.net" agent="Mozilla/5.0 (Windows NT 10.0; Win64; x64) AppleWebKit/537.36 (KHTML, like Gecko) Chrome/134.0.0.0 Safari/537.36" version="26.1.0">
  <diagram id="Yk5ckU8nVrgqMQ11fNSA" name="Page-1">
    <mxGraphModel grid="0" page="1" gridSize="10" guides="1" tooltips="1" connect="1" arrows="1" fold="1" pageScale="1" pageWidth="1200" pageHeight="1600" math="0" shadow="0">
      <root>
        <mxCell id="0" />
        <mxCell id="1" parent="0" />
        <mxCell id="H58fKya_Yo_qW5sWc7oJ-51" value="" style="endArrow=classic;html=1;rounded=0;fontSize=10;entryX=0.5;entryY=1;entryDx=0;entryDy=0;exitX=0.873;exitY=0.421;exitDx=0;exitDy=0;exitPerimeter=0;" edge="1" parent="1" source="H58fKya_Yo_qW5sWc7oJ-28" target="H58fKya_Yo_qW5sWc7oJ-24">
          <mxGeometry width="50" height="50" relative="1" as="geometry">
            <mxPoint x="520" y="300" as="sourcePoint" />
            <mxPoint x="360" y="420" as="targetPoint" />
            <Array as="points">
              <mxPoint x="1170" y="300" />
              <mxPoint x="1170" y="670" />
              <mxPoint x="970" y="670" />
            </Array>
          </mxGeometry>
        </mxCell>
        <mxCell id="H58fKya_Yo_qW5sWc7oJ-50" value="" style="endArrow=classic;html=1;rounded=0;fontSize=10;entryX=0;entryY=0.25;entryDx=0;entryDy=0;entryPerimeter=0;" edge="1" parent="1" target="H58fKya_Yo_qW5sWc7oJ-27">
          <mxGeometry width="50" height="50" relative="1" as="geometry">
            <mxPoint x="510" y="280" as="sourcePoint" />
            <mxPoint x="730" y="260" as="targetPoint" />
            <Array as="points">
              <mxPoint x="800" y="280" />
              <mxPoint x="800" y="240" />
            </Array>
          </mxGeometry>
        </mxCell>
        <mxCell id="H58fKya_Yo_qW5sWc7oJ-49" value="" style="endArrow=classic;html=1;rounded=0;fontSize=10;entryX=0.5;entryY=0;entryDx=0;entryDy=0;exitX=0.964;exitY=0.526;exitDx=0;exitDy=0;exitPerimeter=0;" edge="1" parent="1" source="H58fKya_Yo_qW5sWc7oJ-28" target="H58fKya_Yo_qW5sWc7oJ-29">
          <mxGeometry width="50" height="50" relative="1" as="geometry">
            <mxPoint x="520" y="320" as="sourcePoint" />
            <mxPoint x="810" y="340" as="targetPoint" />
            <Array as="points">
              <mxPoint x="530" y="320" />
              <mxPoint x="1115" y="320" />
            </Array>
          </mxGeometry>
        </mxCell>
        <mxCell id="H58fKya_Yo_qW5sWc7oJ-48" value="" style="endArrow=classic;html=1;rounded=0;fontSize=10;entryX=0;entryY=0.5;entryDx=0;entryDy=0;" edge="1" parent="1" target="H58fKya_Yo_qW5sWc7oJ-25">
          <mxGeometry width="50" height="50" relative="1" as="geometry">
            <mxPoint x="510" y="340" as="sourcePoint" />
            <mxPoint x="690" y="360" as="targetPoint" />
            <Array as="points">
              <mxPoint x="810" y="340" />
            </Array>
          </mxGeometry>
        </mxCell>
        <mxCell id="H58fKya_Yo_qW5sWc7oJ-47" value="" style="endArrow=classic;html=1;rounded=0;fontSize=10;entryX=0.5;entryY=0;entryDx=0;entryDy=0;" edge="1" parent="1" target="H58fKya_Yo_qW5sWc7oJ-24">
          <mxGeometry width="50" height="50" relative="1" as="geometry">
            <mxPoint x="500" y="360" as="sourcePoint" />
            <mxPoint x="960" y="360" as="targetPoint" />
            <Array as="points">
              <mxPoint x="970" y="360" />
            </Array>
          </mxGeometry>
        </mxCell>
        <mxCell id="H58fKya_Yo_qW5sWc7oJ-46" value="" style="endArrow=classic;html=1;rounded=0;fontSize=10;entryX=0.5;entryY=0;entryDx=0;entryDy=0;exitX=0.854;exitY=0.842;exitDx=0;exitDy=0;exitPerimeter=0;" edge="1" parent="1" source="H58fKya_Yo_qW5sWc7oJ-28" target="H58fKya_Yo_qW5sWc7oJ-30">
          <mxGeometry width="50" height="50" relative="1" as="geometry">
            <mxPoint x="560" y="370" as="sourcePoint" />
            <mxPoint x="610" y="350" as="targetPoint" />
            <Array as="points">
              <mxPoint x="735" y="380" />
            </Array>
          </mxGeometry>
        </mxCell>
        <mxCell id="H58fKya_Yo_qW5sWc7oJ-1" value="PC" style="whiteSpace=wrap;html=1;fontSize=8;" vertex="1" parent="1">
          <mxGeometry x="110" y="440" width="30" height="60" as="geometry" />
        </mxCell>
        <mxCell id="H58fKya_Yo_qW5sWc7oJ-2" value="MEMÃ“RIA ROM" style="whiteSpace=wrap;html=1;aspect=fixed;verticalAlign=bottom;fontSize=8;align=right;" vertex="1" parent="1">
          <mxGeometry x="180" y="410" width="120" height="120" as="geometry" />
        </mxCell>
        <mxCell id="H58fKya_Yo_qW5sWc7oJ-3" value="" style="endArrow=classic;html=1;rounded=0;exitDx=0;exitDy=0;entryX=0;entryY=0.5;entryDx=0;entryDy=0;startArrow=none;" edge="1" parent="1" source="T-GRnG9iy_WeXj9dtfF9-3" target="H58fKya_Yo_qW5sWc7oJ-2">
          <mxGeometry width="50" height="50" relative="1" as="geometry">
            <mxPoint x="540" y="440" as="sourcePoint" />
            <mxPoint x="590" y="390" as="targetPoint" />
          </mxGeometry>
        </mxCell>
        <mxCell id="H58fKya_Yo_qW5sWc7oJ-5" value="" style="endArrow=classic;html=1;rounded=0;" edge="1" parent="1">
          <mxGeometry width="50" height="50" relative="1" as="geometry">
            <mxPoint x="160" y="470" as="sourcePoint" />
            <mxPoint x="243" y="230" as="targetPoint" />
            <Array as="points">
              <mxPoint x="160" y="230" />
              <mxPoint x="200" y="230" />
            </Array>
          </mxGeometry>
        </mxCell>
        <mxCell id="H58fKya_Yo_qW5sWc7oJ-6" value="" style="endArrow=classic;html=1;rounded=0;" edge="1" parent="1">
          <mxGeometry width="50" height="50" relative="1" as="geometry">
            <mxPoint x="205" y="180.22" as="sourcePoint" />
            <mxPoint x="243" y="180" as="targetPoint" />
            <Array as="points" />
          </mxGeometry>
        </mxCell>
        <mxCell id="H58fKya_Yo_qW5sWc7oJ-31" style="edgeStyle=orthogonalEdgeStyle;rounded=0;orthogonalLoop=1;jettySize=auto;html=1;exitX=1;exitY=0.5;exitDx=0;exitDy=0;fontSize=10;entryX=0;entryY=0.2;entryDx=0;entryDy=0;entryPerimeter=0;" edge="1" parent="1">
          <mxGeometry relative="1" as="geometry">
            <mxPoint x="720" y="525" as="targetPoint" />
            <Array as="points" />
            <mxPoint x="640" y="525" as="sourcePoint" />
          </mxGeometry>
        </mxCell>
        <mxCell id="H58fKya_Yo_qW5sWc7oJ-34" style="edgeStyle=orthogonalEdgeStyle;rounded=0;orthogonalLoop=1;jettySize=auto;html=1;exitX=1;exitY=0.25;exitDx=0;exitDy=0;entryX=0.292;entryY=1;entryDx=0;entryDy=0;entryPerimeter=0;fontSize=10;" edge="1" parent="1" source="H58fKya_Yo_qW5sWc7oJ-7" target="H58fKya_Yo_qW5sWc7oJ-25">
          <mxGeometry relative="1" as="geometry" />
        </mxCell>
        <mxCell id="H58fKya_Yo_qW5sWc7oJ-7" value="BANCO&lt;br style=&quot;font-size: 8px;&quot;&gt;DE REGISTRADORES" style="whiteSpace=wrap;html=1;aspect=fixed;verticalAlign=bottom;align=right;fontSize=8;" vertex="1" parent="1">
          <mxGeometry x="460" y="430" width="180" height="180" as="geometry" />
        </mxCell>
        <mxCell id="H58fKya_Yo_qW5sWc7oJ-8" value="" style="endArrow=classic;html=1;rounded=0;exitDx=0;exitDy=0;entryX=0.002;entryY=0.22;entryDx=0;entryDy=0;entryPerimeter=0;startArrow=none;" edge="1" parent="1" source="T-GRnG9iy_WeXj9dtfF9-1" target="H58fKya_Yo_qW5sWc7oJ-7">
          <mxGeometry width="50" height="50" relative="1" as="geometry">
            <mxPoint x="300" y="520" as="sourcePoint" />
            <mxPoint x="350" y="470" as="targetPoint" />
          </mxGeometry>
        </mxCell>
        <mxCell id="H58fKya_Yo_qW5sWc7oJ-18" style="edgeStyle=orthogonalEdgeStyle;rounded=0;orthogonalLoop=1;jettySize=auto;html=1;exitX=1;exitY=0.5;exitDx=0;exitDy=0;fontSize=10;entryX=0.022;entryY=0.206;entryDx=0;entryDy=0;entryPerimeter=0;" edge="1" parent="1" source="H58fKya_Yo_qW5sWc7oJ-9" target="H58fKya_Yo_qW5sWc7oJ-11">
          <mxGeometry relative="1" as="geometry">
            <mxPoint x="1010" y="80" as="targetPoint" />
            <Array as="points">
              <mxPoint x="518" y="90" />
              <mxPoint x="518" y="80" />
            </Array>
          </mxGeometry>
        </mxCell>
        <mxCell id="H58fKya_Yo_qW5sWc7oJ-9" value="EXTENSOR&lt;br&gt;5x8" style="ellipse;whiteSpace=wrap;html=1;fontSize=8;" vertex="1" parent="1">
          <mxGeometry x="387" y="50" width="66" height="80" as="geometry" />
        </mxCell>
        <mxCell id="H58fKya_Yo_qW5sWc7oJ-10" value="" style="endArrow=classic;html=1;rounded=0;entryX=0;entryY=0.5;entryDx=0;entryDy=0;" edge="1" parent="1" target="H58fKya_Yo_qW5sWc7oJ-9">
          <mxGeometry width="50" height="50" relative="1" as="geometry">
            <mxPoint x="340" y="470" as="sourcePoint" />
            <mxPoint x="380" y="130" as="targetPoint" />
            <Array as="points">
              <mxPoint x="340" y="90" />
            </Array>
          </mxGeometry>
        </mxCell>
        <mxCell id="H58fKya_Yo_qW5sWc7oJ-11" value="MUX&lt;br style=&quot;font-size: 8px;&quot;&gt;2X1" style="whiteSpace=wrap;html=1;rounded=1;fontSize=8;arcSize=50;" vertex="1" parent="1">
          <mxGeometry x="1020" y="70" width="30" height="50" as="geometry" />
        </mxCell>
        <mxCell id="H58fKya_Yo_qW5sWc7oJ-12" value="MUX&lt;br style=&quot;font-size: 8px;&quot;&gt;2X1" style="whiteSpace=wrap;html=1;rounded=1;fontSize=8;arcSize=50;" vertex="1" parent="1">
          <mxGeometry x="960" y="90" width="30" height="50" as="geometry" />
        </mxCell>
        <mxCell id="H58fKya_Yo_qW5sWc7oJ-13" value="" style="endArrow=classic;html=1;rounded=0;entryX=0;entryY=0.5;entryDx=0;entryDy=0;exitX=1;exitY=0.5;exitDx=0;exitDy=0;" edge="1" parent="1" source="H58fKya_Yo_qW5sWc7oJ-11" target="H58fKya_Yo_qW5sWc7oJ-1">
          <mxGeometry width="50" height="50" relative="1" as="geometry">
            <mxPoint x="760" y="100" as="sourcePoint" />
            <mxPoint x="120" y="450" as="targetPoint" />
            <Array as="points">
              <mxPoint x="1070" y="95" />
              <mxPoint x="1070" y="40" />
              <mxPoint x="760" y="40" />
              <mxPoint x="90" y="40" />
              <mxPoint x="90" y="470" />
            </Array>
          </mxGeometry>
        </mxCell>
        <mxCell id="H58fKya_Yo_qW5sWc7oJ-17" value="" style="endArrow=classic;html=1;rounded=0;exitX=1.003;exitY=0.346;exitDx=0;exitDy=0;entryX=0;entryY=0.75;entryDx=0;entryDy=0;exitPerimeter=0;" edge="1" parent="1" source="H58fKya_Yo_qW5sWc7oJ-12" target="H58fKya_Yo_qW5sWc7oJ-11">
          <mxGeometry width="50" height="50" relative="1" as="geometry">
            <mxPoint x="990" y="160" as="sourcePoint" />
            <mxPoint x="1010" y="110" as="targetPoint" />
          </mxGeometry>
        </mxCell>
        <mxCell id="H58fKya_Yo_qW5sWc7oJ-23" value="EndereÃ§o [7..0] (8 bits)" style="text;html=1;strokeColor=none;fillColor=none;align=center;verticalAlign=middle;whiteSpace=wrap;rounded=0;fontSize=10;" vertex="1" parent="1">
          <mxGeometry x="380" y="20" width="110" height="20" as="geometry" />
        </mxCell>
        <mxCell id="H58fKya_Yo_qW5sWc7oJ-40" style="edgeStyle=orthogonalEdgeStyle;rounded=0;orthogonalLoop=1;jettySize=auto;html=1;exitX=1;exitY=0.5;exitDx=0;exitDy=0;fontSize=10;entryX=0;entryY=0.2;entryDx=0;entryDy=0;entryPerimeter=0;" edge="1" parent="1" source="H58fKya_Yo_qW5sWc7oJ-60">
          <mxGeometry relative="1" as="geometry">
            <mxPoint x="1103" y="485.5" as="targetPoint" />
            <mxPoint x="1060" y="484.5" as="sourcePoint" />
            <Array as="points" />
          </mxGeometry>
        </mxCell>
        <mxCell id="H58fKya_Yo_qW5sWc7oJ-24" value="&lt;font style=&quot;font-size: 8px&quot;&gt;MEMÃ“RIA RAM&lt;/font&gt;" style="whiteSpace=wrap;html=1;aspect=fixed;verticalAlign=bottom;align=right;" vertex="1" parent="1">
          <mxGeometry x="880" y="440" width="180" height="180" as="geometry" />
        </mxCell>
        <mxCell id="H58fKya_Yo_qW5sWc7oJ-38" style="edgeStyle=orthogonalEdgeStyle;rounded=0;orthogonalLoop=1;jettySize=auto;html=1;exitX=0.5;exitY=0;exitDx=0;exitDy=0;entryX=0;entryY=0.333;entryDx=0;entryDy=0;entryPerimeter=0;fontSize=10;" edge="1" parent="1" source="H58fKya_Yo_qW5sWc7oJ-25" target="H58fKya_Yo_qW5sWc7oJ-24">
          <mxGeometry relative="1" as="geometry" />
        </mxCell>
        <mxCell id="H58fKya_Yo_qW5sWc7oJ-45" style="edgeStyle=orthogonalEdgeStyle;rounded=0;orthogonalLoop=1;jettySize=auto;html=1;exitX=0.25;exitY=0;exitDx=0;exitDy=0;fontSize=10;entryX=0;entryY=0.75;entryDx=0;entryDy=0;entryPerimeter=0;" edge="1" parent="1" source="H58fKya_Yo_qW5sWc7oJ-25" target="H58fKya_Yo_qW5sWc7oJ-27">
          <mxGeometry relative="1" as="geometry">
            <mxPoint x="850" y="260" as="targetPoint" />
            <Array as="points">
              <mxPoint x="860" y="470" />
              <mxPoint x="860" y="260" />
            </Array>
          </mxGeometry>
        </mxCell>
        <mxCell id="H58fKya_Yo_qW5sWc7oJ-25" value="ALU" style="shape=trapezoid;perimeter=trapezoidPerimeter;whiteSpace=wrap;html=1;fixedSize=1;rounded=0;fontSize=10;rotation=0;direction=south;" vertex="1" parent="1">
          <mxGeometry x="780" y="440" width="60" height="120" as="geometry" />
        </mxCell>
        <mxCell id="H58fKya_Yo_qW5sWc7oJ-32" style="edgeStyle=orthogonalEdgeStyle;rounded=0;orthogonalLoop=1;jettySize=auto;html=1;exitDx=0;exitDy=0;fontSize=10;entryX=0;entryY=0.6;entryDx=0;entryDy=0;entryPerimeter=0;startArrow=none;" edge="1" parent="1">
          <mxGeometry relative="1" as="geometry">
            <mxPoint x="720" y="543" as="targetPoint" />
            <Array as="points">
              <mxPoint x="660" y="543" />
            </Array>
            <mxPoint x="670" y="543" as="sourcePoint" />
          </mxGeometry>
        </mxCell>
        <mxCell id="H58fKya_Yo_qW5sWc7oJ-26" value="EXTENSOR&lt;br style=&quot;font-size: 8px;&quot;&gt;3x8" style="ellipse;whiteSpace=wrap;html=1;fontSize=8;verticalAlign=middle;" vertex="1" parent="1">
          <mxGeometry x="527" y="680" width="66" height="80" as="geometry" />
        </mxCell>
        <mxCell id="H58fKya_Yo_qW5sWc7oJ-42" style="edgeStyle=orthogonalEdgeStyle;rounded=0;orthogonalLoop=1;jettySize=auto;html=1;exitX=1;exitY=0.5;exitDx=0;exitDy=0;exitPerimeter=0;entryX=0.5;entryY=1;entryDx=0;entryDy=0;fontSize=10;" edge="1" parent="1" source="H58fKya_Yo_qW5sWc7oJ-27" target="H58fKya_Yo_qW5sWc7oJ-12">
          <mxGeometry relative="1" as="geometry">
            <Array as="points">
              <mxPoint x="975" y="250" />
            </Array>
          </mxGeometry>
        </mxCell>
        <mxCell id="H58fKya_Yo_qW5sWc7oJ-27" value="" style="shape=or;whiteSpace=wrap;html=1;rounded=0;fontSize=10;" vertex="1" parent="1">
          <mxGeometry x="870" y="230" width="30" height="40" as="geometry" />
        </mxCell>
        <mxCell id="H58fKya_Yo_qW5sWc7oJ-35" style="edgeStyle=orthogonalEdgeStyle;rounded=0;orthogonalLoop=1;jettySize=auto;html=1;fontSize=10;exitX=0.701;exitY=0.955;exitDx=0;exitDy=0;exitPerimeter=0;" edge="1" parent="1" source="H58fKya_Yo_qW5sWc7oJ-28" target="H58fKya_Yo_qW5sWc7oJ-7">
          <mxGeometry relative="1" as="geometry">
            <mxPoint x="520" y="420" as="targetPoint" />
            <mxPoint x="510" y="400" as="sourcePoint" />
            <Array as="points">
              <mxPoint x="481" y="400" />
              <mxPoint x="550" y="400" />
            </Array>
          </mxGeometry>
        </mxCell>
        <mxCell id="H58fKya_Yo_qW5sWc7oJ-41" style="edgeStyle=orthogonalEdgeStyle;rounded=0;orthogonalLoop=1;jettySize=auto;html=1;exitX=0.873;exitY=0.179;exitDx=0;exitDy=0;fontSize=10;exitPerimeter=0;" edge="1" parent="1" source="H58fKya_Yo_qW5sWc7oJ-28">
          <mxGeometry relative="1" as="geometry">
            <mxPoint x="1030" y="70" as="targetPoint" />
            <Array as="points">
              <mxPoint x="500" y="260" />
              <mxPoint x="580" y="260" />
              <mxPoint x="580" y="50" />
              <mxPoint x="1030" y="50" />
            </Array>
          </mxGeometry>
        </mxCell>
        <mxCell id="H58fKya_Yo_qW5sWc7oJ-28" value="UNIDADE&lt;br style=&quot;font-size: 8px;&quot;&gt;DE CONTROLE" style="ellipse;whiteSpace=wrap;html=1;fontSize=8;" vertex="1" parent="1">
          <mxGeometry x="404" y="220" width="110" height="190" as="geometry" />
        </mxCell>
        <mxCell id="H58fKya_Yo_qW5sWc7oJ-37" style="edgeStyle=orthogonalEdgeStyle;rounded=0;orthogonalLoop=1;jettySize=auto;html=1;exitX=1;exitY=0.5;exitDx=0;exitDy=0;fontSize=10;" edge="1" parent="1" source="H58fKya_Yo_qW5sWc7oJ-29">
          <mxGeometry relative="1" as="geometry">
            <mxPoint x="500" y="610" as="targetPoint" />
            <Array as="points">
              <mxPoint x="1150" y="505" />
              <mxPoint x="1150" y="780" />
              <mxPoint x="500" y="780" />
            </Array>
          </mxGeometry>
        </mxCell>
        <mxCell id="H58fKya_Yo_qW5sWc7oJ-29" value="MUX&lt;br style=&quot;font-size: 8px;&quot;&gt;2X1" style="whiteSpace=wrap;html=1;rounded=1;fontSize=8;arcSize=50;" vertex="1" parent="1">
          <mxGeometry x="1103" y="476" width="30" height="50" as="geometry" />
        </mxCell>
        <mxCell id="H58fKya_Yo_qW5sWc7oJ-33" style="edgeStyle=orthogonalEdgeStyle;rounded=0;orthogonalLoop=1;jettySize=auto;html=1;exitX=1;exitY=0.5;exitDx=0;exitDy=0;entryX=0.75;entryY=1;entryDx=0;entryDy=0;fontSize=10;" edge="1" parent="1" source="H58fKya_Yo_qW5sWc7oJ-30" target="H58fKya_Yo_qW5sWc7oJ-25">
          <mxGeometry relative="1" as="geometry">
            <Array as="points">
              <mxPoint x="730" y="530" />
            </Array>
          </mxGeometry>
        </mxCell>
        <mxCell id="H58fKya_Yo_qW5sWc7oJ-30" value="MUX&lt;br style=&quot;font-size: 8px;&quot;&gt;2X1" style="whiteSpace=wrap;html=1;rounded=1;fontSize=8;arcSize=50;" vertex="1" parent="1">
          <mxGeometry x="720" y="510" width="30" height="50" as="geometry" />
        </mxCell>
        <mxCell id="H58fKya_Yo_qW5sWc7oJ-39" value="" style="endArrow=classic;html=1;rounded=0;fontSize=10;entryX=-0.013;entryY=0.596;entryDx=0;entryDy=0;entryPerimeter=0;" edge="1" parent="1" target="H58fKya_Yo_qW5sWc7oJ-29">
          <mxGeometry width="50" height="50" relative="1" as="geometry">
            <mxPoint x="860" y="500" as="sourcePoint" />
            <mxPoint x="1080" y="510" as="targetPoint" />
            <Array as="points">
              <mxPoint x="860" y="650" />
              <mxPoint x="1080" y="650" />
              <mxPoint x="1080" y="505" />
            </Array>
          </mxGeometry>
        </mxCell>
        <mxCell id="H58fKya_Yo_qW5sWc7oJ-43" value="" style="endArrow=classic;startArrow=none;html=1;rounded=0;fontSize=10;entryX=0;entryY=0.5;entryDx=0;entryDy=0;exitDx=0;exitDy=0;" edge="1" parent="1" source="T-GRnG9iy_WeXj9dtfF9-6" target="H58fKya_Yo_qW5sWc7oJ-28">
          <mxGeometry width="50" height="50" relative="1" as="geometry">
            <mxPoint x="350" y="720" as="sourcePoint" />
            <mxPoint x="350" y="320" as="targetPoint" />
            <Array as="points">
              <mxPoint x="360" y="315" />
            </Array>
          </mxGeometry>
        </mxCell>
        <mxCell id="H58fKya_Yo_qW5sWc7oJ-44" value="" style="endArrow=classic;html=1;rounded=0;fontSize=10;entryX=0;entryY=0.5;entryDx=0;entryDy=0;" edge="1" parent="1" target="H58fKya_Yo_qW5sWc7oJ-7">
          <mxGeometry width="50" height="50" relative="1" as="geometry">
            <mxPoint x="360" y="520" as="sourcePoint" />
            <mxPoint x="430" y="510" as="targetPoint" />
          </mxGeometry>
        </mxCell>
        <mxCell id="H58fKya_Yo_qW5sWc7oJ-52" value="1" style="text;html=1;strokeColor=none;fillColor=none;align=center;verticalAlign=middle;whiteSpace=wrap;rounded=0;fontSize=14;" vertex="1" parent="1">
          <mxGeometry x="180" y="160" width="30" height="40" as="geometry" />
        </mxCell>
        <mxCell id="H58fKya_Yo_qW5sWc7oJ-53" value="&lt;font style=&quot;font-size: 12px&quot;&gt;EndereÃ§o (8 bits)&lt;/font&gt;" style="text;html=1;strokeColor=none;fillColor=none;align=center;verticalAlign=middle;whiteSpace=wrap;rounded=0;fontSize=14;" vertex="1" parent="1">
          <mxGeometry x="180" y="455" width="60" height="30" as="geometry" />
        </mxCell>
        <mxCell id="H58fKya_Yo_qW5sWc7oJ-54" value="&lt;font style=&quot;font-size: 12px&quot;&gt;InstruÃ§Ã£o (8 bits)&lt;/font&gt;" style="text;html=1;strokeColor=none;fillColor=none;align=center;verticalAlign=middle;whiteSpace=wrap;rounded=0;fontSize=14;" vertex="1" parent="1">
          <mxGeometry x="240" y="455" width="60" height="30" as="geometry" />
        </mxCell>
        <mxCell id="H58fKya_Yo_qW5sWc7oJ-55" value="WriteData" style="text;html=1;strokeColor=none;fillColor=none;align=center;verticalAlign=middle;whiteSpace=wrap;rounded=0;fontSize=12;" vertex="1" parent="1">
          <mxGeometry x="470" y="580" width="60" height="30" as="geometry" />
        </mxCell>
        <mxCell id="H58fKya_Yo_qW5sWc7oJ-56" value="MemRead" style="text;html=1;strokeColor=none;fillColor=none;align=center;verticalAlign=middle;whiteSpace=wrap;rounded=0;fontSize=12;" vertex="1" parent="1">
          <mxGeometry x="940" y="590" width="60" height="30" as="geometry" />
        </mxCell>
        <mxCell id="H58fKya_Yo_qW5sWc7oJ-57" value="Dado p/Write" style="text;html=1;strokeColor=none;fillColor=none;align=center;verticalAlign=middle;whiteSpace=wrap;rounded=0;fontSize=12;" vertex="1" parent="1">
          <mxGeometry x="880" y="570" width="60" height="30" as="geometry" />
        </mxCell>
        <mxCell id="H58fKya_Yo_qW5sWc7oJ-58" value="EndereÃ§o" style="text;html=1;strokeColor=none;fillColor=none;align=center;verticalAlign=middle;whiteSpace=wrap;rounded=0;fontSize=12;" vertex="1" parent="1">
          <mxGeometry x="880" y="485" width="60" height="30" as="geometry" />
        </mxCell>
        <mxCell id="H58fKya_Yo_qW5sWc7oJ-59" value="MemWrite" style="text;html=1;strokeColor=none;fillColor=none;align=center;verticalAlign=middle;whiteSpace=wrap;rounded=0;fontSize=12;" vertex="1" parent="1">
          <mxGeometry x="940" y="440" width="60" height="30" as="geometry" />
        </mxCell>
        <mxCell id="H58fKya_Yo_qW5sWc7oJ-60" value="Dado&lt;br&gt;p/Read" style="text;html=1;strokeColor=none;fillColor=none;align=center;verticalAlign=middle;whiteSpace=wrap;rounded=0;fontSize=12;" vertex="1" parent="1">
          <mxGeometry x="1000" y="470" width="60" height="30" as="geometry" />
        </mxCell>
        <mxCell id="H58fKya_Yo_qW5sWc7oJ-61" value="Registradores nÂ°" style="text;html=1;strokeColor=none;fillColor=none;align=center;verticalAlign=middle;whiteSpace=wrap;rounded=0;fontSize=12;" vertex="1" parent="1">
          <mxGeometry x="470" y="455" width="96" height="30" as="geometry" />
        </mxCell>
        <mxCell id="H58fKya_Yo_qW5sWc7oJ-62" value="Registradores nÂ°" style="text;html=1;strokeColor=none;fillColor=none;align=center;verticalAlign=middle;whiteSpace=wrap;rounded=0;fontSize=12;" vertex="1" parent="1">
          <mxGeometry x="470" y="505" width="96" height="30" as="geometry" />
        </mxCell>
        <mxCell id="H58fKya_Yo_qW5sWc7oJ-63" value="Dado 1" style="text;html=1;strokeColor=none;fillColor=none;align=center;verticalAlign=middle;whiteSpace=wrap;rounded=0;fontSize=12;" vertex="1" parent="1">
          <mxGeometry x="580" y="460" width="60" height="30" as="geometry" />
        </mxCell>
        <mxCell id="H58fKya_Yo_qW5sWc7oJ-64" value="Dado 2" style="text;html=1;strokeColor=none;fillColor=none;align=center;verticalAlign=middle;whiteSpace=wrap;rounded=0;fontSize=12;" vertex="1" parent="1">
          <mxGeometry x="580" y="505" width="60" height="30" as="geometry" />
        </mxCell>
        <mxCell id="H58fKya_Yo_qW5sWc7oJ-65" value="Jump" style="text;html=1;strokeColor=none;fillColor=none;align=center;verticalAlign=middle;whiteSpace=wrap;rounded=0;fontSize=12;" vertex="1" parent="1">
          <mxGeometry x="510" y="237.5" width="60" height="25" as="geometry" />
        </mxCell>
        <mxCell id="H58fKya_Yo_qW5sWc7oJ-66" value="Branch" style="text;html=1;strokeColor=none;fillColor=none;align=center;verticalAlign=middle;whiteSpace=wrap;rounded=0;fontSize=12;" vertex="1" parent="1">
          <mxGeometry x="514" y="260" width="60" height="20" as="geometry" />
        </mxCell>
        <mxCell id="H58fKya_Yo_qW5sWc7oJ-67" value="MemToRead" style="text;html=1;strokeColor=none;fillColor=none;align=center;verticalAlign=middle;whiteSpace=wrap;rounded=0;fontSize=12;" vertex="1" parent="1">
          <mxGeometry x="530" y="280" width="60" height="20" as="geometry" />
        </mxCell>
        <mxCell id="H58fKya_Yo_qW5sWc7oJ-68" value="MemToReg" style="text;html=1;strokeColor=none;fillColor=none;align=center;verticalAlign=middle;whiteSpace=wrap;rounded=0;fontSize=12;" vertex="1" parent="1">
          <mxGeometry x="527" y="300" width="60" height="20" as="geometry" />
        </mxCell>
        <mxCell id="H58fKya_Yo_qW5sWc7oJ-69" value="ALUOp" style="text;html=1;strokeColor=none;fillColor=none;align=center;verticalAlign=middle;whiteSpace=wrap;rounded=0;fontSize=12;" vertex="1" parent="1">
          <mxGeometry x="507" y="320" width="80" height="20" as="geometry" />
        </mxCell>
        <mxCell id="H58fKya_Yo_qW5sWc7oJ-70" value="MemWrite" style="text;html=1;strokeColor=none;fillColor=none;align=center;verticalAlign=middle;whiteSpace=wrap;rounded=0;fontSize=12;" vertex="1" parent="1">
          <mxGeometry x="514" y="340" width="80" height="20" as="geometry" />
        </mxCell>
        <mxCell id="H58fKya_Yo_qW5sWc7oJ-71" value="ALUSrc" style="text;html=1;strokeColor=none;fillColor=none;align=center;verticalAlign=middle;whiteSpace=wrap;rounded=0;fontSize=12;" vertex="1" parent="1">
          <mxGeometry x="504" y="360" width="90" height="20" as="geometry" />
        </mxCell>
        <mxCell id="H58fKya_Yo_qW5sWc7oJ-72" value="RegWrite" style="text;html=1;strokeColor=none;fillColor=none;align=center;verticalAlign=middle;whiteSpace=wrap;rounded=0;fontSize=12;" vertex="1" parent="1">
          <mxGeometry x="507" y="435" width="87" height="20" as="geometry" />
        </mxCell>
        <mxCell id="H58fKya_Yo_qW5sWc7oJ-73" value="" style="endArrow=none;html=1;rounded=0;fontSize=8;" edge="1" parent="1">
          <mxGeometry width="50" height="50" relative="1" as="geometry">
            <mxPoint x="490" y="732.5" as="sourcePoint" />
            <mxPoint x="470" y="707.5" as="targetPoint" />
          </mxGeometry>
        </mxCell>
        <mxCell id="H58fKya_Yo_qW5sWc7oJ-75" value="8" style="text;html=1;strokeColor=none;fillColor=none;align=center;verticalAlign=middle;whiteSpace=wrap;rounded=0;fontSize=8;" vertex="1" parent="1">
          <mxGeometry x="627" y="700" width="13" height="10" as="geometry" />
        </mxCell>
        <mxCell id="H58fKya_Yo_qW5sWc7oJ-76" value="" style="endArrow=none;html=1;rounded=0;fontSize=8;" edge="1" parent="1">
          <mxGeometry width="50" height="50" relative="1" as="geometry">
            <mxPoint x="640" y="732.5" as="sourcePoint" />
            <mxPoint x="620" y="707.5" as="targetPoint" />
          </mxGeometry>
        </mxCell>
        <mxCell id="H58fKya_Yo_qW5sWc7oJ-77" value="3" style="text;html=1;strokeColor=none;fillColor=none;align=center;verticalAlign=middle;whiteSpace=wrap;rounded=0;fontSize=8;" vertex="1" parent="1">
          <mxGeometry x="480" y="700" width="13" height="10" as="geometry" />
        </mxCell>
        <mxCell id="H58fKya_Yo_qW5sWc7oJ-78" value="8" style="text;html=1;strokeColor=none;fillColor=none;align=center;verticalAlign=middle;whiteSpace=wrap;rounded=0;fontSize=8;" vertex="1" parent="1">
          <mxGeometry x="477" y="70" width="13" height="10" as="geometry" />
        </mxCell>
        <mxCell id="H58fKya_Yo_qW5sWc7oJ-79" value="" style="endArrow=none;html=1;rounded=0;fontSize=8;" edge="1" parent="1">
          <mxGeometry width="50" height="50" relative="1" as="geometry">
            <mxPoint x="490" y="102.5" as="sourcePoint" />
            <mxPoint x="470" y="77.5" as="targetPoint" />
          </mxGeometry>
        </mxCell>
        <mxCell id="H58fKya_Yo_qW5sWc7oJ-80" value="5" style="text;html=1;strokeColor=none;fillColor=none;align=center;verticalAlign=middle;whiteSpace=wrap;rounded=0;fontSize=8;" vertex="1" parent="1">
          <mxGeometry x="357" y="70" width="13" height="10" as="geometry" />
        </mxCell>
        <mxCell id="H58fKya_Yo_qW5sWc7oJ-81" value="" style="endArrow=none;html=1;rounded=0;fontSize=8;" edge="1" parent="1">
          <mxGeometry width="50" height="50" relative="1" as="geometry">
            <mxPoint x="370" y="102.5" as="sourcePoint" />
            <mxPoint x="350" y="77.5" as="targetPoint" />
          </mxGeometry>
        </mxCell>
        <mxCell id="H58fKya_Yo_qW5sWc7oJ-82" value="EndereÃ§o [7..0] (8 bits)" style="text;html=1;strokeColor=none;fillColor=none;align=center;verticalAlign=middle;whiteSpace=wrap;rounded=0;fontSize=10;" vertex="1" parent="1">
          <mxGeometry x="820" y="56" width="110" height="16" as="geometry" />
        </mxCell>
        <mxCell id="H58fKya_Yo_qW5sWc7oJ-83" value="EndereÃ§o [7..0] (8 bits)" style="text;html=1;strokeColor=none;fillColor=none;align=center;verticalAlign=middle;whiteSpace=wrap;rounded=0;fontSize=10;direction=west;rotation=270;" vertex="1" parent="1">
          <mxGeometry x="95" y="335" width="110" height="10" as="geometry" />
        </mxCell>
        <mxCell id="H58fKya_Yo_qW5sWc7oJ-84" value="InstruÃ§Ã£o [4..0] (5 bits)" style="text;html=1;strokeColor=none;fillColor=none;align=center;verticalAlign=middle;whiteSpace=wrap;rounded=0;fontSize=10;direction=west;rotation=270;" vertex="1" parent="1">
          <mxGeometry x="277" y="332.5" width="110" height="15" as="geometry" />
        </mxCell>
        <mxCell id="H58fKya_Yo_qW5sWc7oJ-86" value="Opcode [7..5] (3 bits)" style="text;html=1;strokeColor=none;fillColor=none;align=center;verticalAlign=middle;whiteSpace=wrap;rounded=0;fontSize=10;direction=west;rotation=270;" vertex="1" parent="1">
          <mxGeometry x="315" y="360" width="110" height="30" as="geometry" />
        </mxCell>
        <mxCell id="H58fKya_Yo_qW5sWc7oJ-87" value="rs [4..3] (2&amp;nbsp;bits)" style="text;html=1;strokeColor=none;fillColor=none;align=center;verticalAlign=middle;whiteSpace=wrap;rounded=0;fontSize=10;direction=west;rotation=0;" vertex="1" parent="1">
          <mxGeometry x="350" y="445" width="110" height="30" as="geometry" />
        </mxCell>
        <mxCell id="H58fKya_Yo_qW5sWc7oJ-89" value="rt&amp;nbsp;[2..1] (2&amp;nbsp;bits)" style="text;html=1;strokeColor=none;fillColor=none;align=center;verticalAlign=middle;whiteSpace=wrap;rounded=0;fontSize=10;direction=west;rotation=0;" vertex="1" parent="1">
          <mxGeometry x="350" y="495" width="110" height="30" as="geometry" />
        </mxCell>
        <mxCell id="H58fKya_Yo_qW5sWc7oJ-90" value="[7..0] (8 bits)" style="text;html=1;strokeColor=none;fillColor=none;align=center;verticalAlign=middle;whiteSpace=wrap;rounded=0;fontSize=10;direction=west;rotation=0;" vertex="1" parent="1">
          <mxGeometry x="641" y="449" width="110" height="25" as="geometry" />
        </mxCell>
        <mxCell id="H58fKya_Yo_qW5sWc7oJ-91" value="[7..0] (8 bits)" style="text;html=1;strokeColor=none;fillColor=none;align=center;verticalAlign=middle;whiteSpace=wrap;rounded=0;fontSize=10;direction=west;rotation=0;" vertex="1" parent="1">
          <mxGeometry x="638" y="493" width="110" height="25" as="geometry" />
        </mxCell>
        <mxCell id="H58fKya_Yo_qW5sWc7oJ-92" value="[7..0] (8 bits)" style="text;html=1;strokeColor=none;fillColor=none;align=center;verticalAlign=middle;whiteSpace=wrap;rounded=0;fontSize=10;direction=west;rotation=270;" vertex="1" parent="1">
          <mxGeometry x="593" y="650" width="110" height="25" as="geometry" />
        </mxCell>
        <mxCell id="H58fKya_Yo_qW5sWc7oJ-93" value="[7..0] (8 bits)" style="text;html=1;strokeColor=none;fillColor=none;align=center;verticalAlign=middle;whiteSpace=wrap;rounded=0;fontSize=10;direction=west;rotation=0;" vertex="1" parent="1">
          <mxGeometry x="720" y="575" width="110" height="25" as="geometry" />
        </mxCell>
        <mxCell id="H58fKya_Yo_qW5sWc7oJ-95" value="8 bits" style="text;html=1;strokeColor=none;fillColor=none;align=center;verticalAlign=middle;whiteSpace=wrap;rounded=0;fontSize=10;direction=west;rotation=0;" vertex="1" parent="1">
          <mxGeometry x="1060" y="460" width="40" height="25" as="geometry" />
        </mxCell>
        <mxCell id="H58fKya_Yo_qW5sWc7oJ-96" value="8 bits" style="text;html=1;strokeColor=none;fillColor=none;align=center;verticalAlign=middle;whiteSpace=wrap;rounded=0;fontSize=10;direction=west;rotation=0;" vertex="1" parent="1">
          <mxGeometry x="840" y="475" width="40" height="25" as="geometry" />
        </mxCell>
        <mxCell id="H58fKya_Yo_qW5sWc7oJ-97" value="Zero" style="text;html=1;strokeColor=none;fillColor=none;align=center;verticalAlign=middle;whiteSpace=wrap;rounded=0;fontSize=8;" vertex="1" parent="1">
          <mxGeometry x="810" y="460" width="40" height="15" as="geometry" />
        </mxCell>
        <mxCell id="H58fKya_Yo_qW5sWc7oJ-98" value="[7..0] (8 bits)" style="text;html=1;strokeColor=none;fillColor=none;align=center;verticalAlign=middle;whiteSpace=wrap;rounded=0;fontSize=10;direction=west;rotation=0;" vertex="1" parent="1">
          <mxGeometry x="770" y="740" width="110" height="50" as="geometry" />
        </mxCell>
        <mxCell id="H58fKya_Yo_qW5sWc7oJ-99" value="[2..0] (3 bits)" style="text;html=1;strokeColor=none;fillColor=none;align=center;verticalAlign=middle;whiteSpace=wrap;rounded=0;fontSize=10;direction=west;rotation=0;" vertex="1" parent="1">
          <mxGeometry x="357" y="690" width="110" height="40" as="geometry" />
        </mxCell>
        <mxCell id="T-GRnG9iy_WeXj9dtfF9-1" value="" style="shape=waypoint;sketch=0;fillStyle=solid;size=6;pointerEvents=1;points=[];fillColor=none;resizable=0;rotatable=0;perimeter=centerPerimeter;snapToPoint=1;" vertex="1" parent="1">
          <mxGeometry x="320" y="450" width="40" height="40" as="geometry" />
        </mxCell>
        <mxCell id="T-GRnG9iy_WeXj9dtfF9-2" value="" style="endArrow=none;html=1;rounded=0;exitX=1;exitY=0.5;exitDx=0;exitDy=0;entryDx=0;entryDy=0;entryPerimeter=0;" edge="1" parent="1" source="H58fKya_Yo_qW5sWc7oJ-2" target="T-GRnG9iy_WeXj9dtfF9-1">
          <mxGeometry width="50" height="50" relative="1" as="geometry">
            <mxPoint x="300" y="470" as="sourcePoint" />
            <mxPoint x="460.3600000000001" y="469.60000000000014" as="targetPoint" />
          </mxGeometry>
        </mxCell>
        <mxCell id="T-GRnG9iy_WeXj9dtfF9-3" value="" style="shape=waypoint;sketch=0;fillStyle=solid;size=6;pointerEvents=1;points=[];fillColor=none;resizable=0;rotatable=0;perimeter=centerPerimeter;snapToPoint=1;" vertex="1" parent="1">
          <mxGeometry x="140" y="450" width="40" height="40" as="geometry" />
        </mxCell>
        <mxCell id="T-GRnG9iy_WeXj9dtfF9-4" value="" style="endArrow=none;html=1;rounded=0;exitX=1;exitY=0.5;exitDx=0;exitDy=0;entryDx=0;entryDy=0;" edge="1" parent="1" source="H58fKya_Yo_qW5sWc7oJ-1" target="T-GRnG9iy_WeXj9dtfF9-3">
          <mxGeometry width="50" height="50" relative="1" as="geometry">
            <mxPoint x="140" y="470" as="sourcePoint" />
            <mxPoint x="180" y="470" as="targetPoint" />
          </mxGeometry>
        </mxCell>
        <mxCell id="T-GRnG9iy_WeXj9dtfF9-6" value="" style="shape=waypoint;sketch=0;fillStyle=solid;size=6;pointerEvents=1;points=[];fillColor=none;resizable=0;rotatable=0;perimeter=centerPerimeter;snapToPoint=1;" vertex="1" parent="1">
          <mxGeometry x="340" y="450" width="40" height="40" as="geometry" />
        </mxCell>
        <mxCell id="T-GRnG9iy_WeXj9dtfF9-7" value="" style="endArrow=none;startArrow=classic;html=1;rounded=0;fontSize=10;entryDx=0;entryDy=0;exitX=0;exitY=0.5;exitDx=0;exitDy=0;" edge="1" parent="1" source="H58fKya_Yo_qW5sWc7oJ-26" target="T-GRnG9iy_WeXj9dtfF9-6">
          <mxGeometry width="50" height="50" relative="1" as="geometry">
            <mxPoint x="526.9999999999966" y="720" as="sourcePoint" />
            <mxPoint x="403.99999999999886" y="315" as="targetPoint" />
            <Array as="points">
              <mxPoint x="360" y="720" />
            </Array>
          </mxGeometry>
        </mxCell>
        <mxCell id="T-GRnG9iy_WeXj9dtfF9-8" value="" style="shape=waypoint;sketch=0;fillStyle=solid;size=6;pointerEvents=1;points=[];fillColor=none;resizable=0;rotatable=0;perimeter=centerPerimeter;snapToPoint=1;" vertex="1" parent="1">
          <mxGeometry x="340" y="500" width="40" height="40" as="geometry" />
        </mxCell>
        <mxCell id="T-GRnG9iy_WeXj9dtfF9-9" value="" style="shape=waypoint;sketch=0;fillStyle=solid;size=6;pointerEvents=1;points=[];fillColor=none;resizable=0;rotatable=0;perimeter=centerPerimeter;snapToPoint=1;" vertex="1" parent="1">
          <mxGeometry x="840" y="480" width="40" height="40" as="geometry" />
        </mxCell>
        <mxCell id="ilsXq2J1koiFqdEaDkW2-12" style="edgeStyle=orthogonalEdgeStyle;rounded=0;orthogonalLoop=1;jettySize=auto;html=1;exitX=1;exitY=0.5;exitDx=0;exitDy=0;entryX=0.033;entryY=0.124;entryDx=0;entryDy=0;entryPerimeter=0;" edge="1" parent="1" source="ilsXq2J1koiFqdEaDkW2-1" target="ilsXq2J1koiFqdEaDkW2-9">
          <mxGeometry relative="1" as="geometry">
            <mxPoint x="695" y="114" as="targetPoint" />
            <Array as="points">
              <mxPoint x="520" y="205" />
              <mxPoint x="520" y="152" />
            </Array>
          </mxGeometry>
        </mxCell>
        <mxCell id="ilsXq2J1koiFqdEaDkW2-1" value="" style="shape=step;perimeter=stepPerimeter;whiteSpace=wrap;html=1;fixedSize=1;" vertex="1" parent="1">
          <mxGeometry x="240" y="160" width="80" height="90" as="geometry" />
        </mxCell>
        <mxCell id="ilsXq2J1koiFqdEaDkW2-5" value="Somador&lt;div&gt;+1&lt;/div&gt;" style="text;html=1;strokeColor=none;fillColor=none;align=center;verticalAlign=middle;whiteSpace=wrap;rounded=0;fontSize=10;direction=west;rotation=0;" vertex="1" parent="1">
          <mxGeometry x="269" y="200" width="31" height="10" as="geometry" />
        </mxCell>
        <mxCell id="ilsXq2J1koiFqdEaDkW2-10" style="edgeStyle=orthogonalEdgeStyle;rounded=0;orthogonalLoop=1;jettySize=auto;html=1;exitX=1;exitY=0.5;exitDx=0;exitDy=0;entryX=0;entryY=0.75;entryDx=0;entryDy=0;" edge="1" parent="1" source="ilsXq2J1koiFqdEaDkW2-9" target="H58fKya_Yo_qW5sWc7oJ-12">
          <mxGeometry relative="1" as="geometry">
            <Array as="points">
              <mxPoint x="909" y="186" />
              <mxPoint x="909" y="128" />
            </Array>
          </mxGeometry>
        </mxCell>
        <mxCell id="ilsXq2J1koiFqdEaDkW2-9" value="" style="shape=step;perimeter=stepPerimeter;whiteSpace=wrap;html=1;fixedSize=1;" vertex="1" parent="1">
          <mxGeometry x="718" y="141" width="82" height="90" as="geometry" />
        </mxCell>
        <mxCell id="ilsXq2J1koiFqdEaDkW2-13" style="edgeStyle=orthogonalEdgeStyle;rounded=0;orthogonalLoop=1;jettySize=auto;html=1;entryX=0.073;entryY=0.924;entryDx=0;entryDy=0;entryPerimeter=0;" edge="1" parent="1">
          <mxGeometry relative="1" as="geometry">
            <mxPoint x="719.9959999999999" y="222.99999999999997" as="targetPoint" />
            <mxPoint x="660" y="553" as="sourcePoint" />
            <Array as="points">
              <mxPoint x="660" y="550" />
              <mxPoint x="661" y="550" />
              <mxPoint x="661" y="223" />
            </Array>
          </mxGeometry>
        </mxCell>
        <mxCell id="ilsXq2J1koiFqdEaDkW2-14" value="Somador&lt;div&gt;&lt;br&gt;&lt;/div&gt;" style="text;html=1;strokeColor=none;fillColor=none;align=center;verticalAlign=middle;whiteSpace=wrap;rounded=0;fontSize=10;direction=west;rotation=0;" vertex="1" parent="1">
          <mxGeometry x="751" y="183" width="31" height="10" as="geometry" />
        </mxCell>
        <mxCell id="RX_Z9eZEeHQkdYK-14CL-3" value="" style="edgeStyle=orthogonalEdgeStyle;rounded=0;orthogonalLoop=1;jettySize=auto;html=1;exitX=1;exitY=0.5;exitDx=0;exitDy=0;fontSize=10;endArrow=none;" edge="1" parent="1" source="H58fKya_Yo_qW5sWc7oJ-26">
          <mxGeometry relative="1" as="geometry">
            <mxPoint x="660" y="543" as="targetPoint" />
            <Array as="points">
              <mxPoint x="593" y="719" />
              <mxPoint x="660" y="719" />
            </Array>
            <mxPoint x="593" y="720" as="sourcePoint" />
          </mxGeometry>
        </mxCell>
        <mxCell id="RX_Z9eZEeHQkdYK-14CL-5" value="" style="endArrow=classic;html=1;rounded=0;edgeStyle=orthogonalEdgeStyle;entryX=0;entryY=0.25;entryDx=0;entryDy=0;" edge="1" parent="1" target="H58fKya_Yo_qW5sWc7oJ-57">
          <mxGeometry width="50" height="50" relative="1" as="geometry">
            <mxPoint x="687" y="525" as="sourcePoint" />
            <mxPoint x="842" y="590" as="targetPoint" />
            <Array as="points">
              <mxPoint x="687" y="578" />
              <mxPoint x="784" y="578" />
            </Array>
          </mxGeometry>
        </mxCell>
        <mxCell id="RX_Z9eZEeHQkdYK-14CL-9" value="" style="endArrow=classic;html=1;rounded=0;entryX=0;entryY=0.25;entryDx=0;entryDy=0;edgeStyle=orthogonalEdgeStyle;" edge="1" parent="1" target="H58fKya_Yo_qW5sWc7oJ-12">
          <mxGeometry width="50" height="50" relative="1" as="geometry">
            <mxPoint x="650" y="153" as="sourcePoint" />
            <mxPoint x="887" y="103" as="targetPoint" />
            <Array as="points">
              <mxPoint x="650" y="103" />
            </Array>
          </mxGeometry>
        </mxCell>
      </root>
    </mxGraphModel>
  </diagram>
</mxfile>
